<!DOCTYPE svg PUBLIC "-//W3C//DTD SVG 1.1//EN" "http://www.w3.org/Graphics/SVG/1.1/DTD/svg11.dtd">
<!-- Uploaded to: SVG Repo, www.svgrepo.com, Transformed by: SVG Repo Mixer Tools -->
<svg height="64px" width="64px" version="1.1" id="Capa_1" xmlns="http://www.w3.org/2000/svg" xmlns:xlink="http://www.w3.org/1999/xlink" viewBox="-193.69 -193.69 871.61 871.61" xml:space="preserve" fill="#000000" transform="matrix(-1, 0, 0, 1, 0, 0)rotate(0)">
<g id="SVGRepo_bgCarrier" stroke-width="0" transform="translate(242.1135,242.1135), scale(0)">
<rect x="-193.69" y="-193.69" width="871.61" height="871.61" rx="435.805" fill="#b04f4f" strokewidth="0"/>
</g>
<g id="SVGRepo_tracerCarrier" stroke-linecap="round" stroke-linejoin="round" stroke="#765b5b" stroke-width="27.116712"> <g> <g> <path style="fill:#e4e0be;" d="M403.673,217.728h57.55c-1.943-17.655-5.95-34.693-11.811-50.844l34.807-34.807l-40.228-40.236 l-22.354,22.354c-11.282-15.802-24.548-30.084-39.513-42.399l20.899-20.899l-40.228-40.236l-30.336,30.336 c-21.411-9.632-44.618-15.981-69.012-18.322v57.412C335.556,89.54,392.887,146.042,403.673,217.728z"/> <path style="fill:#e4e0be;" d="M22.996,217.728h57.55c10.486-69.654,64.899-124.952,134.13-136.715V23.382 c-22.158,2.756-43.293,8.787-62.907,17.606l-30.344-30.344L81.188,50.881l20.907,20.907C87.13,84.102,73.864,98.384,62.59,114.186 L40.236,91.833L0,132.069l34.807,34.807C28.946,183.035,24.938,200.073,22.996,217.728z"/> <circle style="fill:#e4e0be;" cx="237.655" cy="242.114" r="20.947"/> <path style="fill:#e4e0be;" d="M362.803,473.575l40.228-40.236l-20.899-20.899c14.965-12.315,28.231-26.597,39.513-42.399 l22.354,22.354l40.228-40.236l-34.807-34.807c5.861-16.151,9.868-33.189,11.811-50.844h-57.55 c-10.787,71.686-68.117,128.188-140.226,137.649v57.412c24.386-2.341,47.593-8.689,69.012-18.322L362.803,473.575z"/> <path style="fill:#e4e0be;" d="M62.582,370.041c11.282,15.802,24.54,30.084,39.505,42.399L81.18,433.347l40.236,40.236 l30.344-30.344c19.614,8.828,40.749,14.859,62.907,17.607v-57.632c-69.223-11.762-123.644-67.061-134.121-136.714h-57.55 c1.943,17.655,5.95,34.693,11.811,50.844L0,352.15l40.236,40.236L62.582,370.041z"/> </g> </g> </g>
<g id="SVGRepo_iconCarrier"> <g> <g> <path style="fill:#e4e0be;" d="M403.673,217.728h57.55c-1.943-17.655-5.95-34.693-11.811-50.844l34.807-34.807l-40.228-40.236 l-22.354,22.354c-11.282-15.802-24.548-30.084-39.513-42.399l20.899-20.899l-40.228-40.236l-30.336,30.336 c-21.411-9.632-44.618-15.981-69.012-18.322v57.412C335.556,89.54,392.887,146.042,403.673,217.728z"/> <path style="fill:#e4e0be;" d="M22.996,217.728h57.55c10.486-69.654,64.899-124.952,134.13-136.715V23.382 c-22.158,2.756-43.293,8.787-62.907,17.606l-30.344-30.344L81.188,50.881l20.907,20.907C87.13,84.102,73.864,98.384,62.59,114.186 L40.236,91.833L0,132.069l34.807,34.807C28.946,183.035,24.938,200.073,22.996,217.728z"/> <circle style="fill:#e4e0be;" cx="237.655" cy="242.114" r="20.947"/> <path style="fill:#e4e0be;" d="M362.803,473.575l40.228-40.236l-20.899-20.899c14.965-12.315,28.231-26.597,39.513-42.399 l22.354,22.354l40.228-40.236l-34.807-34.807c5.861-16.151,9.868-33.189,11.811-50.844h-57.55 c-10.787,71.686-68.117,128.188-140.226,137.649v57.412c24.386-2.341,47.593-8.689,69.012-18.322L362.803,473.575z"/> <path style="fill:#e4e0be;" d="M62.582,370.041c11.282,15.802,24.54,30.084,39.505,42.399L81.18,433.347l40.236,40.236 l30.344-30.344c19.614,8.828,40.749,14.859,62.907,17.607v-57.632c-69.223-11.762-123.644-67.061-134.121-136.714h-57.55 c1.943,17.655,5.95,34.693,11.811,50.844L0,352.15l40.236,40.236L62.582,370.041z"/> </g> </g> </g>
</svg>